<?xml version="1.0" encoding="UTF-8"?>
<svg version="1.1" xmlns="http://www.w3.org/2000/svg" width="1080" height="1080">
<path d="M0 0 C0.73322416 0.00143887 1.46644833 0.00287773 2.2218914 0.0043602 C15.59205545 0.03969431 28.95085848 0.29277122 42.31640625 0.6328125 C44.24840893 0.68058846 46.18041576 0.72819656 48.11242676 0.77563477 C52.7625011 0.89016666 57.41251425 1.00692843 62.0625 1.125 C62.13097422 57.98120507 62.19465659 114.83741419 62.23187256 171.69364929 C62.23242479 172.53515371 62.23297702 173.37665814 62.23354598 174.24366269 C62.24551764 192.53186762 62.25659836 210.82007299 62.26676132 229.10827901 C62.27175066 238.07682477 62.27693688 247.04537042 62.28222656 256.01391602 C62.2827496 256.9063936 62.28327263 257.79887118 62.28381152 258.71839353 C62.30085658 287.64560473 62.33090157 316.57278466 62.36768888 345.49997692 C62.40542429 375.22669024 62.43004295 404.95338627 62.43815996 434.68012314 C62.43931258 438.87891889 62.44061512 443.07771457 62.44200897 447.27651024 C62.44241351 448.51608374 62.44241351 448.51608374 62.44282622 449.78069913 C62.44755289 463.08260424 62.46610459 476.38445586 62.48982814 489.68633916 C62.51338383 503.05957711 62.52237023 516.43276203 62.51650551 529.80602 C62.51346347 537.75110823 62.52157158 545.69600239 62.54569017 553.64105558 C62.5624725 559.57493257 62.55833611 565.50867557 62.54609558 571.44256773 C62.54440419 573.84248367 62.54948985 576.24241593 62.56203273 578.64229969 C62.57809849 581.9059489 62.56942507 585.1686513 62.55469131 588.43228626 C62.56519937 589.36278769 62.57570742 590.29328911 62.5865339 591.25198755 C62.46861414 602.82077965 58.01029955 611.60555839 50.35546875 619.99609375 C40.37230823 629.76908247 27.80577742 630.86472926 14.52294922 630.75610352 C12.90342427 630.7612543 11.28390496 630.76854425 9.66439819 630.77778625 C5.30484931 630.79615827 0.94591911 630.7834537 -3.41360331 630.76369596 C-7.99684152 630.74719537 -12.58004404 630.75613784 -17.16329956 630.76121521 C-24.85457129 630.76572259 -32.54559873 630.74994851 -40.23681641 630.72192383 C-49.10577025 630.68985527 -57.97428432 630.68990097 -66.84326947 630.7071386 C-75.40818126 630.72304609 -83.97293312 630.7162445 -92.53783798 630.69920158 C-96.1683673 630.69236194 -99.79876723 630.69333153 -103.42929459 630.70074654 C-107.70921972 630.70845326 -111.98864903 630.69614151 -116.26848984 630.66889763 C-117.83127115 630.6620593 -119.39409919 630.66186645 -120.95687866 630.66911316 C-135.0455176 630.72687648 -145.70108879 628.25678009 -155.9375 618.125 C-164.19769476 608.46477223 -167.03334759 598.43108809 -167.09406757 585.85090637 C-167.09881658 585.13737234 -167.10356558 584.4238383 -167.10845849 583.68868202 C-167.12313712 581.2974195 -167.13083648 578.90618712 -167.13850403 576.51489258 C-167.14753375 574.78314894 -167.15696047 573.05140733 -167.16675013 571.31966782 C-167.1922908 566.5602037 -167.21148631 561.80073215 -167.22947419 557.04123425 C-167.24565991 552.95903033 -167.26544711 548.87684678 -167.28515974 544.7946586 C-167.47112032 506.09099884 -167.56537084 467.38684356 -167.64137745 428.68283081 C-167.6514455 423.64548709 -167.66169652 418.60814378 -167.67211914 413.57080078 C-167.67470136 412.31881732 -167.67728359 411.06683385 -167.67994406 409.7769115 C-167.72306635 389.4977945 -167.81149339 369.21912462 -167.91746906 348.94024932 C-168.0254023 328.11387679 -168.08780666 307.28773654 -168.10723227 286.46109104 C-168.11937876 274.77012947 -168.15207633 263.07999362 -168.23682594 251.38931274 C-168.30899133 241.43247148 -168.34048172 231.47655628 -168.31902973 221.519458 C-168.3093731 216.44158448 -168.31898579 211.36571782 -168.38142395 206.28817558 C-168.43823526 201.63216432 -168.43880494 196.97953521 -168.39607402 192.32340467 C-168.3903429 190.64630143 -168.40461528 188.96897442 -168.44177697 187.29227316 C-168.6629823 176.6748384 -166.97416633 170.50234905 -159.53345134 162.69330621 C-158.49911567 161.65510389 -157.45721125 160.6243763 -156.40716597 159.60206556 C-154.21592917 157.39979614 -152.3042439 154.9939015 -150.375 152.5625 C-147.15771802 148.59741734 -143.87806689 144.69500441 -140.5625 140.8125 C-136.67406393 136.25371446 -132.92560964 131.60680463 -129.25 126.875 C-125.61670425 122.19907312 -121.86921372 117.70280537 -117.88671875 113.31640625 C-114.92845359 109.99058109 -112.15061568 106.52322928 -109.34765625 103.06640625 C-106.79161247 99.94695574 -104.18200394 96.87852605 -101.5625 93.8125 C-97.69204678 89.27606026 -93.96620309 84.64993205 -90.3125 79.9375 C-86.43899078 74.9461599 -82.39293018 70.20302183 -78.1171875 65.546875 C-74.21896501 61.21551668 -70.59701268 56.65795037 -66.9375 52.125 C-61.70081541 45.67768403 -56.40206408 39.29072361 -51.02392578 32.96142578 C-47.38689361 28.67442486 -43.82446938 24.3304958 -40.27734375 19.96875 C-37.0862715 16.09045184 -33.8334099 12.26564344 -30.56640625 8.45117188 C-28.53783223 6.07172532 -26.67478547 3.73092821 -24.9375 1.125 C-16.73806871 -0.41073848 -8.3139443 -0.01783077 0 0 Z " fill="#0F2E53" transform="translate(596.9375,417.875)"/>
<path d="M0 0 C2.39966972 -0.00043685 4.7993394 -0.00131384 7.19900882 -0.00258917 C12.38633998 -0.00434957 17.5736607 -0.00304764 22.76099014 0.00104904 C30.47416921 0.00712342 38.1873411 0.00738122 45.90052213 0.00650705 C58.87991292 0.00519783 71.85929859 0.0085167 84.8386879 0.01452446 C97.67955679 0.02045279 110.52042354 0.02429268 123.36129379 0.02537727 C124.16136492 0.02544601 124.96143604 0.02551475 125.78575175 0.02558558 C129.84933645 0.02592393 133.91292115 0.02622531 137.97650586 0.02651245 C166.71715729 0.02860975 195.45780594 0.0353384 224.19845581 0.04481506 C252.10991399 0.05400766 280.02137142 0.06108727 307.93283081 0.06532288 C308.79402766 0.0654544 309.6552245 0.06558593 310.54251822 0.06572144 C319.19145022 0.06704002 327.84038222 0.06831583 336.48931422 0.0695603 C354.10629985 0.07209613 371.72328544 0.07491738 389.340271 0.07791138 C390.55512306 0.07811731 390.55512306 0.07811731 391.7945176 0.07832741 C445.82711405 0.08751941 499.85970893 0.10338447 553.89230347 0.12025452 C553.89230347 4.61818806 553.89230347 4.61818806 551.36495972 7.40541077 C550.8246814 8.01272034 550.28440308 8.62002991 549.72775269 9.2457428 C549.14267944 9.88495667 548.5576062 10.52417053 547.95480347 11.18275452 C546.74918034 12.53455333 545.54475791 13.88742395 544.34152222 15.24134827 C543.74903687 15.90376526 543.15655151 16.56618225 542.54611206 17.24867249 C540.38529972 19.69402049 538.31888343 22.20787237 536.26730347 24.74525452 C533.0250085 28.74764793 529.72824023 32.69609564 526.39230347 36.62025452 C522.34205668 41.38926181 518.34877976 46.199382 514.39620972 51.04994202 C506.58438399 60.62887341 498.7325751 70.17255404 490.724823 79.58851624 C487.16201943 83.78353634 483.67904771 88.0393973 480.20480347 92.30775452 C477.16862981 96.00039815 474.07380376 99.6414724 470.97824097 103.28431702 C467.33370939 107.58038496 463.76443007 111.93393792 460.20870972 116.30384827 C457.61443081 119.45810643 454.97624082 122.57228432 452.32980347 125.68275452 C449.12491155 129.45114391 445.96542652 133.24271479 442.89230347 137.12025452 C439.36346944 141.57279152 435.71001017 145.9071143 432.02902222 150.23353577 C429.11225834 153.6659706 426.23536921 157.12618266 423.39230347 160.62025452 C419.64442549 165.22479032 415.82246902 169.76044643 411.97824097 174.28431702 C409.07985524 177.70084992 406.22075246 181.14530289 403.39230347 184.62025452 C400.10406606 188.66008904 396.76498886 192.65108728 393.39230347 196.62025452 C388.48684503 202.39567995 383.67201681 208.24017551 378.89230347 214.12025452 C373.65311939 220.56558169 368.35690772 226.95448364 362.97872925 233.28382874 C360.08010508 236.70046183 357.22089768 240.14512449 354.39230347 243.62025452 C351.10406606 247.66008904 347.76498886 251.65108728 344.39230347 255.62025452 C338.75444861 262.25796448 333.2386577 268.99084116 327.75558472 275.75697327 C322.07516112 282.74277248 316.25139814 289.59638282 310.36349487 296.40736389 C309.31183395 297.63180017 308.26810143 298.8630641 307.22970581 300.09877014 C306.41880493 301.06073303 306.41880493 301.06073303 305.59152222 302.04212952 C305.09869751 302.63090881 304.6058728 303.21968811 304.09811401 303.8263092 C303.70019653 304.25331116 303.30227905 304.68031311 302.89230347 305.12025452 C302.56230347 305.12025452 302.23230347 305.12025452 301.89230347 305.12025452 C301.89230347 270.14025452 301.89230347 235.16025452 301.89230347 199.12025452 C291.65553589 199.14120178 281.41876831 199.16214905 270.87179565 199.18373108 C238.10225123 199.24795749 205.33270656 199.29243573 172.56311552 199.32451583 C167.47134728 199.32951854 162.37957923 199.33469584 157.28781128 199.33998108 C155.76731933 199.34155494 155.76731933 199.34155494 154.21611038 199.3431606 C137.81214319 199.36055653 121.40823218 199.39208975 105.0042983 199.4288657 C88.16705909 199.46629771 71.32984927 199.48849515 54.49257016 199.4966085 C44.10659459 199.50209157 33.72077785 199.51939721 23.33485118 199.55192038 C16.20874687 199.57309616 9.08272445 199.57944763 1.95659098 199.57426003 C-2.15224516 199.57170301 -6.26080414 199.57556848 -10.36959076 199.59707642 C-14.13782624 199.61665681 -17.90560028 199.61745094 -21.67385778 199.6038501 C-23.66922075 199.60138111 -25.66457894 199.6185298 -27.6598618 199.63657975 C-39.38313669 199.55930546 -49.27794286 197.0517432 -58.10769653 189.12025452 C-58.72386841 188.59560608 -59.34004028 188.07095764 -59.97488403 187.53041077 C-67.41852046 180.74168655 -71.61315661 171.38395219 -72.29667091 161.34463882 C-72.37425126 158.04071842 -72.38934585 154.74198346 -72.38235474 151.43714905 C-72.38746567 150.18407959 -72.3925766 148.93101013 -72.39784241 147.63996887 C-72.40931701 144.22244435 -72.41181901 140.80516329 -72.40927911 137.38763666 C-72.40820449 134.52507076 -72.41310529 131.66252689 -72.41788453 128.79996574 C-72.42895541 122.04131456 -72.42943089 115.28271896 -72.42337036 108.52406311 C-72.41733316 101.57351255 -72.42964059 94.62316456 -72.45094043 87.67264855 C-72.46860817 81.68510632 -72.47454964 75.69762826 -72.47130269 69.71006095 C-72.46949778 66.14281885 -72.47204604 62.57572124 -72.48601723 59.00850296 C-72.50103198 55.02630545 -72.49158032 51.04436206 -72.48001099 47.06214905 C-72.48765472 45.89507416 -72.49529846 44.72799927 -72.50317383 43.52555847 C-72.41907314 30.38435844 -68.76420021 21.23467204 -59.77957153 11.63197327 C-51.89900969 4.06118194 -45.16762842 1.05720749 -34.27067757 0.53402042 C-33.48970687 0.4941327 -32.70873618 0.45424497 -31.90409971 0.41314853 C-21.27458177 -0.07522592 -10.63811545 -0.01452554 0 0 Z " fill="#0F2F53" transform="translate(128.10769653320313,160.87974548339844)"/>
<path d="M0 0 C1.26736552 0.0023229 1.26736552 0.0023229 2.56033438 0.00469273 C3.45110354 0.00242718 4.34187269 0.00016162 5.25963485 -0.00217259 C8.26883172 -0.00854363 11.2779839 -0.00768122 14.2871868 -0.00685817 C16.43532481 -0.00984794 18.58346228 -0.01325004 20.73159903 -0.01703578 C26.58753356 -0.02590365 32.44345348 -0.0282152 38.29939407 -0.02885157 C43.18695536 -0.02979931 48.07451323 -0.03347648 52.96207321 -0.03702366 C64.50111022 -0.04518058 76.04013943 -0.04760696 87.57917899 -0.04689723 C99.47311169 -0.04629771 111.36699886 -0.05682155 123.26092005 -0.0726409 C133.47166115 -0.08573655 143.68238742 -0.0910802 153.89313686 -0.09044182 C159.99126753 -0.09018721 166.08935785 -0.09301733 172.18748015 -0.10361987 C177.9321661 -0.11333361 183.67677344 -0.11335758 189.42146224 -0.10610324 C191.52403617 -0.10506111 193.62661507 -0.10739809 195.72918051 -0.1134637 C211.82329067 -0.15686327 225.64121022 -0.08639633 239.3562786 9.3259055 C247.84810166 17.81772856 253.27115575 27.50908569 253.30922049 39.64565343 C253.31493064 40.74032933 253.32064078 41.83500523 253.32652396 42.96285313 C253.32764182 44.15411305 253.32875968 45.34537297 253.32991141 46.57273167 C253.33487632 47.83511662 253.33984122 49.09750157 253.34495658 50.39814061 C253.35804199 53.85501679 253.36451823 57.31187357 253.36896724 60.76877064 C253.37190481 62.93226617 253.37601094 65.09575649 253.38047141 67.25924939 C253.39413752 74.03917167 253.40380794 80.81908193 253.4076733 87.59901702 C253.412149 95.40502314 253.42967781 103.21085372 253.45867389 111.01680648 C253.48034996 117.06372628 253.49038076 123.1105969 253.49171442 129.1575551 C253.49275841 132.76286065 253.49857893 136.36800098 253.51653403 139.97326535 C253.53620514 144.00131929 253.53170226 148.02900985 253.52522391 152.05710667 C253.53443869 153.23824544 253.54365348 154.4193842 253.55314749 155.63631505 C253.48918738 168.37027714 249.9877656 178.77389954 241.2156536 188.2477805 C232.40169732 196.36772447 222.44196969 199.37346328 210.62843436 199.54779881 C209.80421626 199.5668475 208.97999817 199.58589618 208.13080376 199.6055221 C205.37891442 199.66551215 202.62701924 199.7109328 199.87483329 199.75510472 C197.87909715 199.7929653 195.88336331 199.83094722 193.8876316 199.86904019 C169.58980009 200.302428 145.28768898 200.2857348 120.98682429 200.27370686 C116.15030621 200.27137336 111.31379165 200.27115457 106.47727317 200.27222127 C105.7740614 200.2723745 105.07084964 200.27252773 104.34632842 200.27268561 C102.91485369 200.27300554 101.48337896 200.27332976 100.05190423 200.2736582 C86.76110166 200.27648003 73.47030608 200.27328258 60.17950466 200.26785783 C48.98647259 200.26342855 37.79345109 200.26418372 26.60041922 200.2687766 C-39.21522784 200.29508585 -105.02281651 200.26333105 -170.8312214 199.1384055 C-170.5012214 198.1484055 -170.1712214 197.1584055 -169.8312214 196.1384055 C-169.1712214 196.1384055 -168.5112214 196.1384055 -167.8312214 196.1384055 C-167.51217843 195.35530003 -167.51217843 195.35530003 -167.18669015 194.55637425 C-165.2689694 191.13542571 -162.72998077 188.384155 -160.1437214 185.4509055 C-156.75737465 181.55953766 -153.39688296 177.68066384 -150.2687214 173.5759055 C-146.99670593 169.28486818 -143.51652637 165.18196354 -140.01847726 161.07566136 C-137.08347659 157.62734888 -134.18882959 154.15152237 -131.3312214 150.6384055 C-127.58334342 146.0338697 -123.76138696 141.49821359 -119.9171589 136.974343 C-117.01877317 133.5578101 -114.1596704 130.11335713 -111.3312214 126.6384055 C-107.58334342 122.0338697 -103.76138696 117.49821359 -99.9171589 112.974343 C-97.01877317 109.5578101 -94.1596704 106.11335713 -91.3312214 102.6384055 C-88.042984 98.59857098 -84.7039068 94.60757273 -81.3312214 90.6384055 C-75.69336654 84.00069554 -70.17757563 77.26781886 -64.69450265 70.50168675 C-59.95537456 64.67349512 -55.10967915 58.9510826 -50.20524484 53.26242894 C-46.66854444 49.14793958 -43.25288463 44.95502277 -39.88981515 40.69699925 C-36.96063077 37.05636212 -33.92482564 33.50944101 -30.89518625 29.95237035 C-28.17023526 26.74482687 -25.50276467 23.50424719 -22.8937214 20.2009055 C-6.91621782 0.02930723 -6.91621782 0.02930723 0 0 Z " fill="#249B54" transform="translate(792.8312214016914,160.8615944981575)"/>
<path d="M0 0 C0 143.88 0 287.76 0 436 C-0.33 436 -0.66 436 -1 436 C-1 292.45 -1 148.9 -1 1 C-50.95826792 -5.58457615 -50.95826792 -5.58457615 -92 9 C-92 5.45692326 -90.97539123 3.89671063 -88.64111328 1.28417969 C-72.83030274 -11.08786188 -10.58135382 -0.251937 0 0 Z " fill="#18324E" transform="translate(659,419)"/>
<path d="M0 0 C0.66 0 1.32 0 2 0 C2 3.3 2 6.6 2 10 C-0.0625 8.3125 -0.0625 8.3125 -2 6 C-1.7 1.7 -1.7 1.7 0 0 Z " fill="#1A5552" transform="translate(740,217)"/>
</svg>
